<mxfile host="app.diagrams.net" agent="Mozilla/5.0 (Windows NT 10.0; Win64; x64) AppleWebKit/537.36 (KHTML, like Gecko) Chrome/136.0.0.0 Safari/537.36" version="26.2.6">
  <diagram name="Страница — 1" id="DDxGcpWIcqUSqFjpWCov">
    <mxGraphModel dx="635" dy="402" grid="0" gridSize="10" guides="1" tooltips="1" connect="1" arrows="1" fold="1" page="1" pageScale="1" pageWidth="827" pageHeight="1169" math="0" shadow="0">
      <root>
        <mxCell id="0" />
        <mxCell id="1" parent="0" />
        <mxCell id="Tca7jCdyKCkeMtGDoquK-1" value="Пользователь" style="shape=umlActor;verticalLabelPosition=bottom;verticalAlign=top;html=1;outlineConnect=0;" vertex="1" parent="1">
          <mxGeometry x="30" y="560" width="30" height="60" as="geometry" />
        </mxCell>
        <mxCell id="Tca7jCdyKCkeMtGDoquK-2" value="Кнопка &quot;+&quot;" style="ellipse;whiteSpace=wrap;html=1;" vertex="1" parent="1">
          <mxGeometry x="160" y="325" width="110" height="60" as="geometry" />
        </mxCell>
        <mxCell id="Tca7jCdyKCkeMtGDoquK-3" value="Статистика" style="ellipse;whiteSpace=wrap;html=1;" vertex="1" parent="1">
          <mxGeometry x="160" y="606" width="110" height="60" as="geometry" />
        </mxCell>
        <mxCell id="Tca7jCdyKCkeMtGDoquK-4" value="История" style="ellipse;whiteSpace=wrap;html=1;" vertex="1" parent="1">
          <mxGeometry x="160" y="769" width="110" height="60" as="geometry" />
        </mxCell>
        <mxCell id="Tca7jCdyKCkeMtGDoquK-5" value="Отчет" style="ellipse;whiteSpace=wrap;html=1;" vertex="1" parent="1">
          <mxGeometry x="160" y="839" width="110" height="60" as="geometry" />
        </mxCell>
        <mxCell id="Tca7jCdyKCkeMtGDoquK-7" value="Выбрать тип операции (доход/расход)" style="ellipse;whiteSpace=wrap;html=1;" vertex="1" parent="1">
          <mxGeometry x="380" y="150" width="110" height="60" as="geometry" />
        </mxCell>
        <mxCell id="Tca7jCdyKCkeMtGDoquK-9" value="Ввести сумму" style="ellipse;whiteSpace=wrap;html=1;" vertex="1" parent="1">
          <mxGeometry x="380" y="220" width="110" height="60" as="geometry" />
        </mxCell>
        <mxCell id="Tca7jCdyKCkeMtGDoquK-10" value="&lt;font style=&quot;font-size: 11px;&quot;&gt;Выбрать категорию(продукты,&lt;/font&gt;&lt;div&gt;&lt;font style=&quot;font-size: 11px;&quot;&gt;транспорт, зарплата и т. д.)&lt;/font&gt;&lt;/div&gt;" style="ellipse;whiteSpace=wrap;html=1;" vertex="1" parent="1">
          <mxGeometry x="380" y="290" width="110" height="60" as="geometry" />
        </mxCell>
        <mxCell id="Tca7jCdyKCkeMtGDoquK-11" value="Написать описание" style="ellipse;whiteSpace=wrap;html=1;" vertex="1" parent="1">
          <mxGeometry x="380" y="360" width="110" height="60" as="geometry" />
        </mxCell>
        <mxCell id="Tca7jCdyKCkeMtGDoquK-12" value="Выбрать дату" style="ellipse;whiteSpace=wrap;html=1;" vertex="1" parent="1">
          <mxGeometry x="380" y="430" width="110" height="60" as="geometry" />
        </mxCell>
        <mxCell id="Tca7jCdyKCkeMtGDoquK-13" value="Добавить в список операций" style="ellipse;whiteSpace=wrap;html=1;" vertex="1" parent="1">
          <mxGeometry x="380" y="500" width="110" height="60" as="geometry" />
        </mxCell>
        <mxCell id="Tca7jCdyKCkeMtGDoquK-14" value="" style="endArrow=classic;html=1;rounded=0;exitX=0;exitY=0.5;exitDx=0;exitDy=0;entryX=1;entryY=0.5;entryDx=0;entryDy=0;dashed=1;" edge="1" parent="1" source="Tca7jCdyKCkeMtGDoquK-7" target="Tca7jCdyKCkeMtGDoquK-2">
          <mxGeometry width="50" height="50" relative="1" as="geometry">
            <mxPoint x="200" y="375" as="sourcePoint" />
            <mxPoint x="250" y="325" as="targetPoint" />
          </mxGeometry>
        </mxCell>
        <mxCell id="Tca7jCdyKCkeMtGDoquK-15" value="" style="endArrow=classic;html=1;rounded=0;exitX=0;exitY=0.5;exitDx=0;exitDy=0;dashed=1;" edge="1" parent="1" source="Tca7jCdyKCkeMtGDoquK-9">
          <mxGeometry width="50" height="50" relative="1" as="geometry">
            <mxPoint x="220" y="405" as="sourcePoint" />
            <mxPoint x="270" y="355" as="targetPoint" />
          </mxGeometry>
        </mxCell>
        <mxCell id="Tca7jCdyKCkeMtGDoquK-16" value="" style="endArrow=classic;html=1;rounded=0;exitX=0;exitY=0.5;exitDx=0;exitDy=0;dashed=1;" edge="1" parent="1" source="Tca7jCdyKCkeMtGDoquK-10">
          <mxGeometry width="50" height="50" relative="1" as="geometry">
            <mxPoint x="220" y="405" as="sourcePoint" />
            <mxPoint x="270" y="355" as="targetPoint" />
          </mxGeometry>
        </mxCell>
        <mxCell id="Tca7jCdyKCkeMtGDoquK-17" value="" style="endArrow=classic;html=1;rounded=0;exitX=0;exitY=0.5;exitDx=0;exitDy=0;dashed=1;" edge="1" parent="1" source="Tca7jCdyKCkeMtGDoquK-11">
          <mxGeometry width="50" height="50" relative="1" as="geometry">
            <mxPoint x="220" y="405" as="sourcePoint" />
            <mxPoint x="270" y="355" as="targetPoint" />
          </mxGeometry>
        </mxCell>
        <mxCell id="Tca7jCdyKCkeMtGDoquK-18" value="" style="endArrow=classic;html=1;rounded=0;exitX=0;exitY=0.5;exitDx=0;exitDy=0;dashed=1;" edge="1" parent="1" source="Tca7jCdyKCkeMtGDoquK-12">
          <mxGeometry width="50" height="50" relative="1" as="geometry">
            <mxPoint x="220" y="405" as="sourcePoint" />
            <mxPoint x="270" y="355" as="targetPoint" />
          </mxGeometry>
        </mxCell>
        <mxCell id="Tca7jCdyKCkeMtGDoquK-19" value="" style="endArrow=classic;html=1;rounded=0;exitX=0;exitY=0.5;exitDx=0;exitDy=0;dashed=1;" edge="1" parent="1" source="Tca7jCdyKCkeMtGDoquK-13">
          <mxGeometry width="50" height="50" relative="1" as="geometry">
            <mxPoint x="220" y="405" as="sourcePoint" />
            <mxPoint x="270" y="355" as="targetPoint" />
          </mxGeometry>
        </mxCell>
        <mxCell id="Tca7jCdyKCkeMtGDoquK-21" value="Отобразить диаграмму расходов" style="ellipse;whiteSpace=wrap;html=1;" vertex="1" parent="1">
          <mxGeometry x="380" y="571" width="110" height="60" as="geometry" />
        </mxCell>
        <mxCell id="Tca7jCdyKCkeMtGDoquK-22" value="Отобразить диаграмму доходов" style="ellipse;whiteSpace=wrap;html=1;" vertex="1" parent="1">
          <mxGeometry x="380" y="641" width="110" height="60" as="geometry" />
        </mxCell>
        <mxCell id="Tca7jCdyKCkeMtGDoquK-23" value="" style="endArrow=classic;html=1;rounded=0;exitX=0;exitY=0.5;exitDx=0;exitDy=0;entryX=1;entryY=0.5;entryDx=0;entryDy=0;dashed=1;" edge="1" parent="1" source="Tca7jCdyKCkeMtGDoquK-21" target="Tca7jCdyKCkeMtGDoquK-3">
          <mxGeometry width="50" height="50" relative="1" as="geometry">
            <mxPoint x="230" y="701" as="sourcePoint" />
            <mxPoint x="280" y="651" as="targetPoint" />
          </mxGeometry>
        </mxCell>
        <mxCell id="Tca7jCdyKCkeMtGDoquK-24" value="" style="endArrow=classic;html=1;rounded=0;exitX=0;exitY=0.5;exitDx=0;exitDy=0;entryX=1;entryY=0.5;entryDx=0;entryDy=0;dashed=1;" edge="1" parent="1" source="Tca7jCdyKCkeMtGDoquK-22" target="Tca7jCdyKCkeMtGDoquK-3">
          <mxGeometry width="50" height="50" relative="1" as="geometry">
            <mxPoint x="220" y="691" as="sourcePoint" />
            <mxPoint x="270" y="641" as="targetPoint" />
          </mxGeometry>
        </mxCell>
        <mxCell id="Tca7jCdyKCkeMtGDoquK-25" value="Отображение списка операций" style="ellipse;whiteSpace=wrap;html=1;" vertex="1" parent="1">
          <mxGeometry x="380" y="769" width="110" height="60" as="geometry" />
        </mxCell>
        <mxCell id="Tca7jCdyKCkeMtGDoquK-26" value="" style="endArrow=classic;html=1;rounded=0;exitX=0;exitY=0.5;exitDx=0;exitDy=0;dashed=1;" edge="1" parent="1" source="Tca7jCdyKCkeMtGDoquK-25">
          <mxGeometry width="50" height="50" relative="1" as="geometry">
            <mxPoint x="220" y="849" as="sourcePoint" />
            <mxPoint x="270" y="799" as="targetPoint" />
          </mxGeometry>
        </mxCell>
        <mxCell id="Tca7jCdyKCkeMtGDoquK-27" value="Сохранение отчета&amp;nbsp;в Excel" style="ellipse;whiteSpace=wrap;html=1;" vertex="1" parent="1">
          <mxGeometry x="380" y="839" width="110" height="60" as="geometry" />
        </mxCell>
        <mxCell id="Tca7jCdyKCkeMtGDoquK-28" value="" style="endArrow=classic;html=1;rounded=0;exitX=0;exitY=0.5;exitDx=0;exitDy=0;dashed=1;" edge="1" parent="1" source="Tca7jCdyKCkeMtGDoquK-27">
          <mxGeometry width="50" height="50" relative="1" as="geometry">
            <mxPoint x="220" y="919" as="sourcePoint" />
            <mxPoint x="270" y="869" as="targetPoint" />
          </mxGeometry>
        </mxCell>
        <mxCell id="Tca7jCdyKCkeMtGDoquK-30" value="Сгенерировать таблицу с данными" style="ellipse;whiteSpace=wrap;html=1;" vertex="1" parent="1">
          <mxGeometry x="610" y="769" width="110" height="60" as="geometry" />
        </mxCell>
        <mxCell id="Tca7jCdyKCkeMtGDoquK-31" value="Добавить диаграммы расходов и доходов" style="ellipse;whiteSpace=wrap;html=1;" vertex="1" parent="1">
          <mxGeometry x="610" y="839" width="110" height="60" as="geometry" />
        </mxCell>
        <mxCell id="Tca7jCdyKCkeMtGDoquK-32" value="Экспортировать в файл" style="ellipse;whiteSpace=wrap;html=1;" vertex="1" parent="1">
          <mxGeometry x="610" y="909" width="110" height="60" as="geometry" />
        </mxCell>
        <mxCell id="Tca7jCdyKCkeMtGDoquK-33" value="" style="endArrow=classic;html=1;rounded=0;exitX=0;exitY=0.5;exitDx=0;exitDy=0;dashed=1;" edge="1" parent="1" source="Tca7jCdyKCkeMtGDoquK-30">
          <mxGeometry width="50" height="50" relative="1" as="geometry">
            <mxPoint x="440" y="919" as="sourcePoint" />
            <mxPoint x="490" y="869" as="targetPoint" />
          </mxGeometry>
        </mxCell>
        <mxCell id="Tca7jCdyKCkeMtGDoquK-34" value="" style="endArrow=classic;html=1;rounded=0;exitX=0;exitY=0.5;exitDx=0;exitDy=0;dashed=1;" edge="1" parent="1" source="Tca7jCdyKCkeMtGDoquK-32">
          <mxGeometry width="50" height="50" relative="1" as="geometry">
            <mxPoint x="440" y="919" as="sourcePoint" />
            <mxPoint x="490" y="869" as="targetPoint" />
          </mxGeometry>
        </mxCell>
        <mxCell id="Tca7jCdyKCkeMtGDoquK-35" value="" style="endArrow=classic;html=1;rounded=0;exitX=0;exitY=0.5;exitDx=0;exitDy=0;dashed=1;" edge="1" parent="1" source="Tca7jCdyKCkeMtGDoquK-31">
          <mxGeometry width="50" height="50" relative="1" as="geometry">
            <mxPoint x="440" y="919" as="sourcePoint" />
            <mxPoint x="490" y="869" as="targetPoint" />
          </mxGeometry>
        </mxCell>
        <mxCell id="Tca7jCdyKCkeMtGDoquK-36" value="" style="endArrow=none;html=1;rounded=0;" edge="1" parent="1">
          <mxGeometry width="50" height="50" relative="1" as="geometry">
            <mxPoint x="90" y="630" as="sourcePoint" />
            <mxPoint x="160" y="360" as="targetPoint" />
          </mxGeometry>
        </mxCell>
        <mxCell id="Tca7jCdyKCkeMtGDoquK-37" value="" style="endArrow=none;html=1;rounded=0;" edge="1" parent="1">
          <mxGeometry width="50" height="50" relative="1" as="geometry">
            <mxPoint x="90" y="630" as="sourcePoint" />
            <mxPoint x="160" y="640" as="targetPoint" />
          </mxGeometry>
        </mxCell>
        <mxCell id="Tca7jCdyKCkeMtGDoquK-38" value="" style="endArrow=none;html=1;rounded=0;entryX=0;entryY=0.5;entryDx=0;entryDy=0;" edge="1" parent="1" target="Tca7jCdyKCkeMtGDoquK-4">
          <mxGeometry width="50" height="50" relative="1" as="geometry">
            <mxPoint x="90" y="630" as="sourcePoint" />
            <mxPoint x="160" y="740" as="targetPoint" />
          </mxGeometry>
        </mxCell>
        <mxCell id="Tca7jCdyKCkeMtGDoquK-39" value="" style="endArrow=none;html=1;rounded=0;entryX=0;entryY=0.5;entryDx=0;entryDy=0;" edge="1" parent="1" target="Tca7jCdyKCkeMtGDoquK-5">
          <mxGeometry width="50" height="50" relative="1" as="geometry">
            <mxPoint x="90" y="630" as="sourcePoint" />
            <mxPoint x="160" y="810" as="targetPoint" />
          </mxGeometry>
        </mxCell>
        <mxCell id="Tca7jCdyKCkeMtGDoquK-40" value="" style="endArrow=none;html=1;rounded=0;" edge="1" parent="1">
          <mxGeometry width="50" height="50" relative="1" as="geometry">
            <mxPoint x="320" y="720" as="sourcePoint" />
            <mxPoint x="320" y="620" as="targetPoint" />
          </mxGeometry>
        </mxCell>
        <mxCell id="Tca7jCdyKCkeMtGDoquK-41" value="Доступно после добавления в список доходов и расходов" style="rounded=0;whiteSpace=wrap;html=1;" vertex="1" parent="1">
          <mxGeometry x="260" y="701" width="120" height="60" as="geometry" />
        </mxCell>
        <mxCell id="Tca7jCdyKCkeMtGDoquK-42" value="" style="endArrow=none;html=1;rounded=0;exitX=1.002;exitY=0.33;exitDx=0;exitDy=0;exitPerimeter=0;" edge="1" parent="1" source="Tca7jCdyKCkeMtGDoquK-41">
          <mxGeometry width="50" height="50" relative="1" as="geometry">
            <mxPoint x="300" y="751" as="sourcePoint" />
            <mxPoint x="350" y="701" as="targetPoint" />
          </mxGeometry>
        </mxCell>
        <mxCell id="Tca7jCdyKCkeMtGDoquK-43" value="&amp;lt;&amp;lt;extend&amp;gt;&amp;gt;" style="text;html=1;align=center;verticalAlign=middle;whiteSpace=wrap;rounded=0;rotation=-55;" vertex="1" parent="1">
          <mxGeometry x="290" y="235" width="60" height="30" as="geometry" />
        </mxCell>
        <mxCell id="Tca7jCdyKCkeMtGDoquK-44" value="&amp;lt;&amp;lt;extend&amp;gt;&amp;gt;" style="text;html=1;align=center;verticalAlign=middle;whiteSpace=wrap;rounded=0;rotation=-45;" vertex="1" parent="1">
          <mxGeometry x="320" y="253" width="60" height="30" as="geometry" />
        </mxCell>
        <mxCell id="Tca7jCdyKCkeMtGDoquK-46" value="&amp;lt;&amp;lt;extend&amp;gt;&amp;gt;" style="text;html=1;align=center;verticalAlign=middle;whiteSpace=wrap;rounded=0;rotation=-15;" vertex="1" parent="1">
          <mxGeometry x="315" y="304" width="60" height="30" as="geometry" />
        </mxCell>
        <mxCell id="Tca7jCdyKCkeMtGDoquK-47" value="&amp;lt;&amp;lt;extend&amp;gt;&amp;gt;" style="text;html=1;align=center;verticalAlign=middle;whiteSpace=wrap;rounded=0;rotation=15;" vertex="1" parent="1">
          <mxGeometry x="320" y="352" width="60" height="30" as="geometry" />
        </mxCell>
        <mxCell id="Tca7jCdyKCkeMtGDoquK-48" value="&amp;lt;&amp;lt;extend&amp;gt;&amp;gt;" style="text;html=1;align=center;verticalAlign=middle;whiteSpace=wrap;rounded=0;rotation=45;" vertex="1" parent="1">
          <mxGeometry x="330" y="403" width="60" height="30" as="geometry" />
        </mxCell>
        <mxCell id="Tca7jCdyKCkeMtGDoquK-50" value="&amp;lt;&amp;lt;extend&amp;gt;&amp;gt;" style="text;html=1;align=center;verticalAlign=middle;whiteSpace=wrap;rounded=0;rotation=60;" vertex="1" parent="1">
          <mxGeometry x="322" y="452" width="60" height="30" as="geometry" />
        </mxCell>
        <mxCell id="Tca7jCdyKCkeMtGDoquK-51" value="&amp;lt;&amp;lt;extend&amp;gt;&amp;gt;" style="text;html=1;align=center;verticalAlign=middle;whiteSpace=wrap;rounded=0;rotation=-20;" vertex="1" parent="1">
          <mxGeometry x="300" y="582" width="60" height="30" as="geometry" />
        </mxCell>
        <mxCell id="Tca7jCdyKCkeMtGDoquK-52" value="&amp;lt;&amp;lt;extend&amp;gt;&amp;gt;" style="text;html=1;align=center;verticalAlign=middle;whiteSpace=wrap;rounded=0;" vertex="1" parent="1">
          <mxGeometry x="300" y="769" width="60" height="30" as="geometry" />
        </mxCell>
        <mxCell id="Tca7jCdyKCkeMtGDoquK-53" value="&amp;lt;&amp;lt;extend&amp;gt;&amp;gt;" style="text;html=1;align=center;verticalAlign=middle;whiteSpace=wrap;rounded=0;" vertex="1" parent="1">
          <mxGeometry x="300" y="839" width="60" height="30" as="geometry" />
        </mxCell>
        <mxCell id="Tca7jCdyKCkeMtGDoquK-54" value="&amp;lt;&amp;lt;extend&amp;gt;&amp;gt;" style="text;html=1;align=center;verticalAlign=middle;whiteSpace=wrap;rounded=0;rotation=15;" vertex="1" parent="1">
          <mxGeometry x="322" y="632" width="60" height="30" as="geometry" />
        </mxCell>
        <mxCell id="Tca7jCdyKCkeMtGDoquK-55" value="&amp;lt;&amp;lt;include&amp;gt;&amp;gt;" style="text;html=1;align=center;verticalAlign=middle;whiteSpace=wrap;rounded=0;" vertex="1" parent="1">
          <mxGeometry x="540" y="839" width="60" height="30" as="geometry" />
        </mxCell>
        <mxCell id="Tca7jCdyKCkeMtGDoquK-57" value="&amp;lt;&amp;lt;include&amp;gt;&amp;gt;" style="text;html=1;align=center;verticalAlign=middle;whiteSpace=wrap;rounded=0;rotation=-30;" vertex="1" parent="1">
          <mxGeometry x="521" y="793" width="60" height="30" as="geometry" />
        </mxCell>
        <mxCell id="Tca7jCdyKCkeMtGDoquK-58" value="&amp;lt;&amp;lt;include&amp;gt;&amp;gt;" style="text;html=1;align=center;verticalAlign=middle;whiteSpace=wrap;rounded=0;rotation=30;" vertex="1" parent="1">
          <mxGeometry x="550" y="886" width="60" height="30" as="geometry" />
        </mxCell>
      </root>
    </mxGraphModel>
  </diagram>
</mxfile>
